<svg xmlns="http://www.w3.org/2000/svg" xmlns:xlink="http://www.w3.org/1999/xlink" width="40" zoomAndPan="magnify" viewBox="0 0 30 30.000001" height="40" preserveAspectRatio="xMidYMid meet" version="1.0"><defs><clipPath id="b47d053701"><path d="M 10.648438 15.035156 L 27.734375 15.035156 L 27.734375 27.675781 L 10.648438 27.675781 Z M 10.648438 15.035156 " clip-rule="nonzero"/></clipPath><clipPath id="05feb7230e"><path d="M 7 0.394531 L 15.96875 0.394531 L 15.96875 14 L 7 14 Z M 7 0.394531 " clip-rule="nonzero"/></clipPath><clipPath id="7e247dfd5a"><path d="M 0.953125 13.882812 L 29.046875 13.882812 L 29.046875 16.238281 L 0.953125 16.238281 Z M 0.953125 13.882812 " clip-rule="nonzero"/></clipPath></defs><path fill="#ffffff" d="M 12.179688 18.78125 C 13.210938 17.8125 12.800781 16.167969 11.933594 15.054688 L 2.402344 15.054688 C 2.402344 20.21875 5.503906 24.664062 9.941406 26.628906 C 9.179688 22.21875 11.324219 19.585938 12.179688 18.78125 " fill-opacity="1" fill-rule="nonzero"/><g clip-path="url(#b47d053701)"><path fill="#ffffff" d="M 21.8125 15.054688 C 20.941406 16.394531 19.398438 18.167969 16.941406 19.082031 C 13.292969 20.441406 9.550781 21.28125 10.953125 27.019531 C 12.242188 27.464844 13.621094 27.710938 15.058594 27.710938 C 22.050781 27.710938 27.714844 22.042969 27.714844 15.054688 L 21.8125 15.054688 " fill-opacity="1" fill-rule="nonzero"/></g><g clip-path="url(#05feb7230e)"><path fill="#ffffff" d="M 12.804688 10.285156 C 12.011719 8.988281 11.308594 7.558594 11.195312 6.390625 C 11.195312 6.390625 12.09375 7.71875 13.242188 9.148438 C 13.75 8.050781 14.542969 6.902344 15.734375 5.765625 C 14.519531 3.800781 12.246094 1.777344 8.09375 0.285156 C 8.09375 0.285156 5.863281 5.523438 8.113281 9.566406 C 8.957031 11.445312 10.488281 12.886719 12.507812 13.988281 C 12.363281 12.976562 12.371094 11.695312 12.804688 10.285156 " fill-opacity="1" fill-rule="nonzero"/></g><path fill="#ffffff" d="M 22.027344 4.003906 C 10.585938 8.125 13.40625 16.21875 13.40625 16.21875 C 15.390625 15.332031 18.925781 10.117188 18.925781 10.117188 C 18.710938 12.257812 16.53125 15.304688 15.390625 16.769531 C 15.363281 16.800781 13.941406 18.375 13.097656 18.839844 C 11.226562 19.867188 11.28125 20.902344 11.191406 21.347656 C 11.191406 21.363281 11.1875 21.375 11.1875 21.382812 C 11.273438 21.144531 11.875 19.910156 14.652344 18.976562 C 18.140625 17.804688 20.792969 16 22.007812 13.292969 C 24.257812 9.242188 22.027344 4.003906 22.027344 4.003906 " fill-opacity="1" fill-rule="nonzero"/><g clip-path="url(#7e247dfd5a)"><path fill="#ffffff" d="M 27.996094 13.886719 L 22.472656 13.886719 C 22.207031 14.4375 21.714844 15.3125 20.941406 16.226562 L 27.996094 16.226562 C 28.644531 16.226562 29.167969 15.699219 29.167969 15.054688 C 29.167969 14.40625 28.644531 13.886719 27.996094 13.886719 Z M 12.585938 16.226562 L 2.125 16.226562 C 1.476562 16.226562 0.953125 15.699219 0.953125 15.054688 C 0.953125 14.40625 1.476562 13.886719 2.125 13.886719 L 10.195312 13.886719 C 10.824219 14.132812 11.441406 14.472656 11.808594 14.898438 C 12.136719 15.285156 12.410156 15.746094 12.585938 16.226562 " fill-opacity="1" fill-rule="nonzero"/></g></svg>