<svg xmlns="http://www.w3.org/2000/svg" xmlns:xlink="http://www.w3.org/1999/xlink" width="40" zoomAndPan="magnify" viewBox="0 0 30 30.000001" height="40" preserveAspectRatio="xMidYMid meet" version="1.0"><defs><clipPath id="512f6c1a19"><path d="M 10.503906 15.535156 L 28.160156 15.535156 L 28.160156 28.597656 L 10.503906 28.597656 Z M 10.503906 15.535156 " clip-rule="nonzero"/></clipPath><clipPath id="bf07fc096d"><path d="M 6 0.40625 L 16 0.40625 L 16 15 L 6 15 Z M 6 0.40625 " clip-rule="nonzero"/></clipPath><clipPath id="a14250bfe3"><path d="M 0.484375 14.34375 L 29.515625 14.34375 L 29.515625 16.78125 L 0.484375 16.78125 Z M 0.484375 14.34375 " clip-rule="nonzero"/></clipPath></defs><path fill="#ffffff" d="M 12.085938 19.40625 C 13.152344 18.40625 12.726562 16.707031 11.832031 15.554688 L 1.984375 15.554688 C 1.984375 20.894531 5.1875 25.484375 9.773438 27.515625 C 8.984375 22.960938 11.203125 20.238281 12.085938 19.40625 " fill-opacity="1" fill-rule="nonzero"/><g clip-path="url(#512f6c1a19)"><path fill="#ffffff" d="M 22.039062 15.554688 C 21.140625 16.941406 19.546875 18.773438 17.007812 19.71875 C 13.234375 21.121094 9.367188 21.992188 10.816406 27.921875 C 12.148438 28.378906 13.574219 28.632812 15.0625 28.632812 C 22.285156 28.632812 28.136719 22.777344 28.136719 15.554688 L 22.039062 15.554688 " fill-opacity="1" fill-rule="nonzero"/></g><g clip-path="url(#bf07fc096d)"><path fill="#ffffff" d="M 12.730469 10.628906 C 11.910156 9.289062 11.1875 7.8125 11.070312 6.605469 C 11.070312 6.605469 11.996094 7.976562 13.183594 9.453125 C 13.707031 8.320312 14.527344 7.132812 15.757812 5.957031 C 14.503906 3.925781 12.15625 1.835938 7.863281 0.292969 C 7.863281 0.292969 5.558594 5.707031 7.882812 9.886719 C 8.753906 11.828125 10.335938 13.316406 12.425781 14.453125 C 12.277344 13.410156 12.285156 12.085938 12.730469 10.628906 " fill-opacity="1" fill-rule="nonzero"/></g><path fill="#ffffff" d="M 22.261719 4.136719 C 10.4375 8.394531 13.351562 16.757812 13.351562 16.757812 C 15.402344 15.84375 19.054688 10.453125 19.054688 10.453125 C 18.835938 12.667969 16.582031 15.816406 15.402344 17.328125 C 15.375 17.359375 13.90625 18.988281 13.035156 19.46875 C 11.101562 20.53125 11.15625 21.597656 11.066406 22.058594 C 11.0625 22.074219 11.058594 22.085938 11.058594 22.09375 C 11.148438 21.847656 11.769531 20.574219 14.640625 19.609375 C 18.246094 18.398438 20.984375 16.535156 22.242188 13.734375 C 24.566406 9.550781 22.261719 4.136719 22.261719 4.136719 " fill-opacity="1" fill-rule="nonzero"/><g clip-path="url(#a14250bfe3)"><path fill="#ffffff" d="M 28.429688 14.347656 L 22.722656 14.347656 C 22.445312 14.917969 21.9375 15.824219 21.140625 16.765625 L 28.429688 16.765625 C 29.097656 16.765625 29.640625 16.222656 29.640625 15.554688 C 29.640625 14.886719 29.097656 14.347656 28.429688 14.347656 Z M 12.503906 16.765625 L 1.695312 16.765625 C 1.027344 16.765625 0.484375 16.222656 0.484375 15.554688 C 0.484375 14.886719 1.027344 14.347656 1.695312 14.347656 L 10.035156 14.347656 C 10.683594 14.605469 11.324219 14.953125 11.703125 15.394531 C 12.042969 15.792969 12.324219 16.269531 12.503906 16.765625 " fill-opacity="1" fill-rule="nonzero"/></g></svg>