<svg xmlns="http://www.w3.org/2000/svg" xmlns:xlink="http://www.w3.org/1999/xlink" width="55" zoomAndPan="magnify" viewBox="0 0 30 30.000001" height="55" preserveAspectRatio="xMidYMid meet" version="1.0"><defs><clipPath id="5aed1d9083"><path d="M 0.484375 8.292969 L 29.515625 8.292969 L 29.515625 21.355469 L 0.484375 21.355469 Z M 0.484375 8.292969 " clip-rule="nonzero"/></clipPath></defs><g clip-path="url(#5aed1d9083)"><path fill="#1d1d1b" d="M 27.570312 10.207031 C 26.355469 9.011719 24.738281 8.335938 23.019531 8.300781 C 22.96875 8.296875 22.921875 8.296875 22.875 8.296875 C 22.089844 8.296875 21.316406 8.433594 20.582031 8.699219 C 19.773438 8.988281 19.039062 9.425781 18.402344 10 C 18.328125 10.0625 18.253906 10.132812 18.183594 10.207031 C 18.113281 10.273438 18.050781 10.339844 17.988281 10.40625 L 15.039062 13.296875 L 15.035156 13.292969 L 14.253906 14.089844 L 13.421875 14.878906 L 13.425781 14.882812 L 10.472656 17.777344 L 10.453125 17.796875 C 10.410156 17.84375 10.363281 17.894531 10.3125 17.945312 C 10.261719 17.992188 10.210938 18.039062 10.160156 18.085938 C 8.375 19.683594 5.640625 19.621094 3.929688 17.945312 C 2.167969 16.21875 2.167969 13.40625 3.929688 11.679688 C 5.640625 10.003906 8.375 9.941406 10.160156 11.539062 L 10.160156 11.542969 C 10.210938 11.585938 10.261719 11.632812 10.3125 11.679688 C 10.359375 11.730469 10.410156 11.78125 10.453125 11.828125 L 10.472656 11.847656 L 11.339844 12.699219 L 10.398438 13.625 L 13.753906 13.597656 L 13.78125 10.304688 L 12.84375 11.226562 L 12.007812 10.40625 C 11.945312 10.339844 11.882812 10.273438 11.816406 10.207031 C 11.742188 10.136719 11.667969 10.066406 11.59375 10 C 10.957031 9.429688 10.222656 8.992188 9.417969 8.699219 C 8.679688 8.433594 7.910156 8.296875 7.121094 8.296875 C 7.074219 8.296875 7.027344 8.300781 6.976562 8.300781 C 5.257812 8.335938 3.640625 9.011719 2.425781 10.207031 C 1.792969 10.828125 1.300781 11.554688 0.96875 12.363281 C 0.644531 13.144531 0.480469 13.96875 0.480469 14.8125 C 0.480469 15.660156 0.644531 16.484375 0.96875 17.265625 C 1.300781 18.074219 1.792969 18.796875 2.425781 19.421875 C 3.640625 20.613281 5.257812 21.289062 6.976562 21.328125 C 7.8125 21.34375 8.632812 21.210938 9.417969 20.929688 C 10.222656 20.636719 10.957031 20.199219 11.59375 19.628906 C 11.667969 19.5625 11.742188 19.492188 11.816406 19.421875 C 11.882812 19.355469 11.945312 19.289062 12.007812 19.222656 L 14.925781 16.359375 L 14.929688 16.359375 L 16.503906 14.8125 L 19.507812 11.863281 L 19.527344 11.847656 L 19.542969 11.828125 C 19.585938 11.78125 19.636719 11.730469 19.683594 11.679688 C 19.734375 11.632812 19.785156 11.585938 19.835938 11.542969 L 19.835938 11.539062 C 21.621094 9.941406 24.355469 10.003906 26.066406 11.679688 C 26.917969 12.519531 27.390625 13.628906 27.390625 14.8125 C 27.390625 15.996094 26.917969 17.105469 26.066406 17.945312 C 25.1875 18.808594 24.03125 19.242188 22.875 19.242188 C 21.789062 19.242188 20.699219 18.859375 19.835938 18.085938 L 19.835938 18.082031 C 19.785156 18.039062 19.734375 17.992188 19.6875 17.945312 C 19.636719 17.894531 19.585938 17.84375 19.542969 17.796875 L 19.527344 17.777344 L 17.238281 15.53125 L 15.734375 17.007812 L 17.988281 19.21875 C 18.050781 19.285156 18.113281 19.351562 18.183594 19.417969 C 18.253906 19.488281 18.328125 19.558594 18.402344 19.625 C 19.039062 20.195312 19.773438 20.632812 20.582031 20.925781 C 21.363281 21.207031 22.183594 21.34375 23.019531 21.324219 C 24.738281 21.289062 26.355469 20.613281 27.570312 19.417969 C 28.203125 18.796875 28.695312 18.070312 29.027344 17.261719 C 29.351562 16.480469 29.515625 15.65625 29.515625 14.8125 C 29.515625 13.964844 29.351562 13.140625 29.027344 12.359375 C 28.695312 11.554688 28.203125 10.828125 27.570312 10.207031 Z M 27.570312 10.207031 " fill-opacity="1" fill-rule="nonzero"/></g></svg>