<svg xmlns="http://www.w3.org/2000/svg" xmlns:xlink="http://www.w3.org/1999/xlink" width="55" zoomAndPan="magnify" viewBox="0 0 30 30.000001" height="55" preserveAspectRatio="xMidYMid meet" version="1.0"><defs><clipPath id="76950e7437"><path d="M 8 8 L 10 8 L 10 29.03125 L 8 29.03125 Z M 8 8 " clip-rule="nonzero"/></clipPath><clipPath id="c17c716cd9"><path d="M 10 0.144531 L 23 0.144531 L 23 21 L 10 21 Z M 10 0.144531 " clip-rule="nonzero"/></clipPath><clipPath id="48747d28de"><path d="M 15 6 L 17 6 L 17 29.03125 L 15 29.03125 Z M 15 6 " clip-rule="nonzero"/></clipPath><clipPath id="1bc9b10ae4"><path d="M 0.484375 11 L 9 11 L 9 24 L 0.484375 24 Z M 0.484375 11 " clip-rule="nonzero"/></clipPath><clipPath id="5faabfed20"><path d="M 4 15 L 6 15 L 6 29.03125 L 4 29.03125 Z M 4 15 " clip-rule="nonzero"/></clipPath><clipPath id="922dc55533"><path d="M 17 11 L 29.515625 11 L 29.515625 22 L 17 22 Z M 17 11 " clip-rule="nonzero"/></clipPath><clipPath id="e53e5fad8d"><path d="M 22 14 L 24 14 L 24 29.03125 L 22 29.03125 Z M 22 14 " clip-rule="nonzero"/></clipPath><clipPath id="4a3fac38d8"><path d="M 0.484375 28 L 29.515625 28 L 29.515625 29.03125 L 0.484375 29.03125 Z M 0.484375 28 " clip-rule="nonzero"/></clipPath></defs><path fill="#000000" d="M 9.125 18.421875 C 8.550781 18.421875 7.980469 18.277344 7.476562 18.003906 C 7.238281 17.875 7.144531 17.570312 7.277344 17.328125 C 7.40625 17.085938 7.707031 16.992188 7.949219 17.125 C 8.3125 17.320312 8.707031 17.421875 9.125 17.421875 C 9.136719 17.421875 9.148438 17.421875 9.164062 17.421875 C 9.167969 17.417969 9.175781 17.417969 9.179688 17.417969 C 9.875 17.40625 10.535156 17.09375 10.992188 16.570312 C 11.171875 16.363281 11.488281 16.339844 11.695312 16.523438 C 11.898438 16.707031 11.921875 17.019531 11.738281 17.230469 C 11.101562 17.960938 10.179688 18.394531 9.210938 18.417969 C 9.183594 18.421875 9.152344 18.421875 9.125 18.421875 Z M 9.125 18.421875 " fill-opacity="1" fill-rule="nonzero"/><path fill="#000000" d="M 2.917969 14.566406 C 2.761719 14.566406 2.605469 14.496094 2.511719 14.355469 C 2.023438 13.664062 1.765625 12.851562 1.765625 12 C 1.765625 10.324219 2.800781 8.816406 4.324219 8.203125 C 4.429688 5.480469 6.667969 3.304688 9.402344 3.304688 C 10.742188 3.304688 12.007812 3.824219 12.960938 4.765625 C 13.15625 4.960938 13.160156 5.277344 12.96875 5.472656 C 12.773438 5.667969 12.460938 5.671875 12.265625 5.480469 C 11.496094 4.71875 10.480469 4.300781 9.402344 4.300781 C 7.148438 4.300781 5.3125 6.144531 5.3125 8.410156 C 5.3125 8.4375 5.3125 8.464844 5.316406 8.492188 L 5.316406 8.546875 C 5.320312 8.773438 5.175781 8.972656 4.960938 9.039062 C 3.664062 9.421875 2.757812 10.636719 2.757812 12 C 2.757812 12.640625 2.953125 13.257812 3.320312 13.777344 C 3.480469 14.003906 3.425781 14.316406 3.203125 14.476562 C 3.117188 14.539062 3.015625 14.566406 2.917969 14.566406 Z M 2.917969 14.566406 " fill-opacity="1" fill-rule="nonzero"/><g clip-path="url(#76950e7437)"><path fill="#000000" d="M 9.191406 29.160156 C 8.917969 29.160156 8.695312 28.9375 8.695312 28.660156 L 8.695312 9.019531 C 8.695312 8.746094 8.917969 8.519531 9.191406 8.519531 C 9.464844 8.519531 9.6875 8.746094 9.6875 9.019531 L 9.6875 28.660156 C 9.6875 28.9375 9.464844 29.160156 9.191406 29.160156 Z M 9.191406 29.160156 " fill-opacity="1" fill-rule="nonzero"/></g><path fill="#000000" d="M 9.191406 11.894531 C 9.066406 11.894531 8.9375 11.84375 8.839844 11.746094 C 8.644531 11.550781 8.644531 11.234375 8.839844 11.039062 L 10.53125 9.34375 C 10.726562 9.148438 11.039062 9.148438 11.234375 9.34375 C 11.429688 9.539062 11.429688 9.855469 11.234375 10.050781 L 9.542969 11.746094 C 9.445312 11.84375 9.320312 11.894531 9.191406 11.894531 Z M 9.191406 11.894531 " fill-opacity="1" fill-rule="nonzero"/><path fill="#000000" d="M 9.191406 14.472656 C 9.066406 14.472656 8.9375 14.425781 8.839844 14.328125 L 6.601562 12.078125 C 6.40625 11.882812 6.40625 11.566406 6.601562 11.371094 C 6.796875 11.175781 7.109375 11.175781 7.304688 11.371094 L 9.542969 13.621094 C 9.738281 13.816406 9.738281 14.132812 9.542969 14.328125 C 9.445312 14.425781 9.320312 14.472656 9.191406 14.472656 Z M 9.191406 14.472656 " fill-opacity="1" fill-rule="nonzero"/><g clip-path="url(#c17c716cd9)"><path fill="#000000" d="M 16.398438 20.234375 C 14.027344 20.234375 11.929688 19.046875 10.925781 17.132812 C 10.464844 16.261719 10.234375 15.257812 10.234375 14.148438 C 10.234375 10.980469 10.917969 7.699219 12.160156 4.917969 C 13.445312 2.03125 15.109375 0.164062 16.398438 0.164062 C 18.621094 0.164062 21.855469 5.617188 22.457031 11.980469 C 22.484375 12.253906 22.285156 12.5 22.007812 12.523438 C 21.734375 12.550781 21.492188 12.347656 21.46875 12.074219 C 21.105469 8.238281 19.867188 5.476562 19.160156 4.167969 C 18.097656 2.195312 16.964844 1.164062 16.398438 1.164062 C 15.785156 1.164062 14.34375 2.453125 13.066406 5.328125 C 11.878906 7.984375 11.226562 11.117188 11.226562 14.148438 C 11.226562 15.09375 11.421875 15.9375 11.804688 16.664062 C 12.636719 18.25 14.398438 19.234375 16.398438 19.234375 C 16.992188 19.234375 17.570312 19.148438 18.117188 18.980469 C 18.378906 18.894531 18.660156 19.042969 18.738281 19.308594 C 18.820312 19.570312 18.675781 19.851562 18.414062 19.933594 C 17.769531 20.132812 17.089844 20.234375 16.398438 20.234375 Z M 16.398438 20.234375 " fill-opacity="1" fill-rule="nonzero"/></g><g clip-path="url(#48747d28de)"><path fill="#000000" d="M 16.398438 29.171875 C 16.121094 29.171875 15.898438 28.949219 15.898438 28.671875 L 15.898438 7.191406 C 15.898438 6.914062 16.121094 6.691406 16.398438 6.691406 C 16.671875 6.691406 16.894531 6.914062 16.894531 7.191406 L 16.894531 28.671875 C 16.894531 28.949219 16.671875 29.171875 16.398438 29.171875 Z M 16.398438 29.171875 " fill-opacity="1" fill-rule="nonzero"/></g><path fill="#000000" d="M 16.398438 11.96875 C 16.269531 11.96875 16.144531 11.921875 16.046875 11.824219 C 15.851562 11.628906 15.851562 11.3125 16.046875 11.117188 L 18.347656 8.804688 C 18.539062 8.609375 18.855469 8.609375 19.050781 8.804688 C 19.242188 9 19.242188 9.316406 19.050781 9.511719 L 16.75 11.824219 C 16.652344 11.921875 16.523438 11.96875 16.398438 11.96875 Z M 16.398438 11.96875 " fill-opacity="1" fill-rule="nonzero"/><path fill="#000000" d="M 16.398438 16.292969 C 16.269531 16.292969 16.144531 16.246094 16.046875 16.148438 L 13.375 13.464844 C 13.179688 13.269531 13.179688 12.953125 13.375 12.757812 C 13.570312 12.5625 13.882812 12.5625 14.078125 12.757812 L 16.75 15.441406 C 16.945312 15.636719 16.945312 15.953125 16.75 16.148438 C 16.652344 16.246094 16.523438 16.292969 16.398438 16.292969 Z M 16.398438 16.292969 " fill-opacity="1" fill-rule="nonzero"/><g clip-path="url(#1bc9b10ae4)"><path fill="#000000" d="M 4.679688 23.957031 C 2.792969 23.957031 0.882812 22.667969 0.882812 20.203125 C 0.882812 17.492188 1.683594 15.421875 2.164062 14.425781 C 2.457031 13.820312 3.503906 11.84375 4.679688 11.84375 C 5.859375 11.84375 6.902344 13.820312 7.195312 14.425781 C 7.675781 15.421875 8.480469 17.492188 8.480469 20.203125 C 8.480469 22.667969 6.566406 23.957031 4.679688 23.957031 Z M 4.679688 12.84375 C 4.453125 12.84375 3.75 13.4375 3.058594 14.863281 C 2.617188 15.78125 1.875 17.691406 1.875 20.203125 C 1.875 22.09375 3.328125 22.957031 4.679688 22.957031 C 6.03125 22.957031 7.484375 22.09375 7.484375 20.203125 C 7.484375 17.691406 6.742188 15.78125 6.300781 14.863281 C 5.613281 13.4375 4.90625 12.84375 4.679688 12.84375 Z M 4.679688 12.84375 " fill-opacity="1" fill-rule="nonzero"/></g><g clip-path="url(#5faabfed20)"><path fill="#000000" d="M 4.679688 29.160156 C 4.40625 29.160156 4.183594 28.9375 4.183594 28.660156 L 4.183594 16.144531 C 4.183594 15.871094 4.40625 15.648438 4.679688 15.648438 C 4.953125 15.648438 5.175781 15.871094 5.175781 16.144531 L 5.175781 28.660156 C 5.175781 28.9375 4.953125 29.160156 4.679688 29.160156 Z M 4.679688 29.160156 " fill-opacity="1" fill-rule="nonzero"/></g><path fill="#000000" d="M 4.679688 19.140625 C 4.554688 19.140625 4.425781 19.089844 4.328125 18.992188 C 4.132812 18.796875 4.132812 18.480469 4.328125 18.285156 L 5.667969 16.9375 C 5.863281 16.742188 6.179688 16.742188 6.371094 16.9375 C 6.566406 17.132812 6.566406 17.449219 6.371094 17.644531 L 5.03125 18.992188 C 4.933594 19.089844 4.808594 19.140625 4.679688 19.140625 Z M 4.679688 19.140625 " fill-opacity="1" fill-rule="nonzero"/><path fill="#000000" d="M 4.679688 21.660156 C 4.554688 21.660156 4.425781 21.609375 4.328125 21.511719 L 2.773438 19.949219 C 2.578125 19.753906 2.578125 19.4375 2.773438 19.242188 C 2.964844 19.046875 3.28125 19.046875 3.476562 19.242188 L 5.03125 20.804688 C 5.226562 21 5.226562 21.316406 5.03125 21.511719 C 4.933594 21.609375 4.808594 21.660156 4.679688 21.660156 Z M 4.679688 21.660156 " fill-opacity="1" fill-rule="nonzero"/><g clip-path="url(#922dc55533)"><path fill="#000000" d="M 25.757812 21.921875 C 24.582031 21.921875 23.914062 21.351562 23.398438 20.664062 C 22.675781 21.203125 21.601562 21.515625 20.800781 21.515625 C 18.953125 21.515625 17.453125 20.003906 17.453125 18.152344 C 17.453125 16.796875 18.277344 15.574219 19.5 15.054688 C 19.621094 12.859375 21.433594 11.113281 23.648438 11.113281 C 25.832031 11.113281 27.636719 12.824219 27.789062 14.984375 C 28.855469 15.675781 29.507812 16.863281 29.507812 18.152344 C 29.507812 20.230469 27.824219 21.921875 25.757812 21.921875 Z M 23.480469 19.40625 C 23.488281 19.40625 23.496094 19.40625 23.503906 19.40625 C 23.664062 19.414062 23.8125 19.5 23.898438 19.632812 C 24.460938 20.503906 24.882812 20.921875 25.757812 20.921875 C 27.277344 20.921875 28.511719 19.679688 28.511719 18.152344 C 28.511719 17.132812 27.960938 16.199219 27.066406 15.714844 C 26.90625 15.628906 26.808594 15.460938 26.808594 15.277344 C 26.800781 13.53125 25.382812 12.113281 23.648438 12.113281 C 21.90625 12.113281 20.488281 13.539062 20.488281 15.289062 C 20.488281 15.3125 20.488281 15.335938 20.488281 15.355469 L 20.488281 15.390625 C 20.496094 15.617188 20.351562 15.820312 20.132812 15.886719 C 19.140625 16.179688 18.449219 17.113281 18.449219 18.152344 C 18.449219 19.453125 19.503906 20.515625 20.800781 20.515625 C 21.632812 20.515625 22.703125 20.085938 23.089844 19.59375 C 23.1875 19.476562 23.328125 19.40625 23.480469 19.40625 Z M 23.480469 19.40625 " fill-opacity="1" fill-rule="nonzero"/></g><g clip-path="url(#e53e5fad8d)"><path fill="#000000" d="M 23.480469 29.160156 C 23.207031 29.160156 22.984375 28.9375 22.984375 28.660156 L 22.984375 15.191406 C 22.984375 14.914062 23.207031 14.691406 23.480469 14.691406 C 23.753906 14.691406 23.976562 14.914062 23.976562 15.191406 L 23.976562 28.660156 C 23.976562 28.9375 23.753906 29.160156 23.480469 29.160156 Z M 23.480469 29.160156 " fill-opacity="1" fill-rule="nonzero"/></g><path fill="#000000" d="M 23.480469 17.320312 C 23.355469 17.320312 23.226562 17.269531 23.128906 17.171875 C 22.933594 16.976562 22.933594 16.660156 23.128906 16.464844 L 24.289062 15.300781 C 24.480469 15.105469 24.796875 15.105469 24.992188 15.300781 C 25.1875 15.496094 25.1875 15.8125 24.992188 16.007812 L 23.832031 17.171875 C 23.734375 17.269531 23.609375 17.320312 23.480469 17.320312 Z M 23.480469 17.320312 " fill-opacity="1" fill-rule="nonzero"/><path fill="#000000" d="M 23.480469 19.089844 C 23.355469 19.089844 23.226562 19.039062 23.128906 18.941406 L 21.59375 17.398438 C 21.398438 17.203125 21.398438 16.886719 21.59375 16.691406 C 21.789062 16.496094 22.101562 16.496094 22.296875 16.691406 L 23.832031 18.234375 C 24.027344 18.429688 24.027344 18.746094 23.832031 18.941406 C 23.734375 19.039062 23.609375 19.089844 23.480469 19.089844 Z M 23.480469 19.089844 " fill-opacity="1" fill-rule="nonzero"/><g clip-path="url(#4a3fac38d8)"><path fill="#000000" d="M 28.828125 29.160156 L 0.976562 29.160156 C 0.703125 29.160156 0.480469 28.9375 0.480469 28.660156 C 0.480469 28.386719 0.703125 28.164062 0.976562 28.164062 L 28.828125 28.164062 C 29.101562 28.164062 29.324219 28.386719 29.324219 28.660156 C 29.324219 28.9375 29.101562 29.160156 28.828125 29.160156 Z M 28.828125 29.160156 " fill-opacity="1" fill-rule="nonzero"/></g></svg>