<svg xmlns="http://www.w3.org/2000/svg" 
xmlns:xlink="http://www.w3.org/1999/xlink" 
width="55" zoomAndPan="magnify" viewBox="0 0 30 30.000001" 
height="55" preserveAspectRatio="xMidYMid meet" version="1.0"><defs><clipPath id="0d4cc8814a"><path d="M 0.484375 0 L 29.515625 0 L 29.515625 29.03125 L 0.484375 29.03125 Z M 0.484375 0 " clip-rule="nonzero"/></clipPath><clipPath id="c4bb625921"><path d="M 0.484375 14 L 29.515625 14 L 29.515625 28.011719 L 0.484375 28.011719 Z M 0.484375 14 " clip-rule="nonzero"/></clipPath><clipPath id="363a761fe1"><path d="M 12 1.882812 L 17 1.882812 L 17 12 L 12 12 Z M 12 1.882812 " clip-rule="nonzero"/></clipPath></defs><g clip-path="url(#0d4cc8814a)"><path fill="#ffffff" d="M 0.484375 0 L 29.515625 0 L 29.515625 29.03125 L 0.484375 29.03125 Z M 0.484375 0 " fill-opacity="1" fill-rule="nonzero"/><path fill="#ffffff" d="M 0.484375 0 L 29.515625 0 L 29.515625 29.03125 L 0.484375 29.03125 Z M 0.484375 0 " fill-opacity="1" fill-rule="nonzero"/></g><g clip-path="url(#c4bb625921)"><path fill="#000000" d="M 29.015625 14.542969 L 0.984375 14.542969 C 0.714844 14.542969 0.535156 14.722656 0.535156 14.992188 C 0.714844 19.480469 4.058594 24.238281 8.851562 26.035156 C 8.761719 26.214844 8.671875 26.394531 8.671875 26.664062 C 8.671875 27.382812 9.304688 28.011719 10.027344 28.011719 L 20.605469 28.011719 C 21.328125 28.011719 22.050781 27.472656 22.050781 26.753906 C 22.050781 26.394531 21.960938 26.035156 21.691406 25.855469 C 26.210938 23.96875 29.285156 19.390625 29.464844 15.082031 C 29.464844 14.722656 29.285156 14.542969 29.015625 14.542969 Z M 29.015625 14.542969 " fill-opacity="1" fill-rule="nonzero"/></g><path fill="#000000" d="M 9.03125 13.375 C 9.394531 13.734375 9.9375 13.734375 10.296875 13.375 C 12.378906 11.398438 11.113281 9.515625 10.296875 8.257812 C 9.394531 6.820312 9.125 6.28125 10.296875 5.382812 C 10.660156 5.023438 10.75 4.484375 10.390625 4.125 C 10.117188 3.765625 9.484375 3.675781 9.125 3.945312 C 6.589844 6.011719 7.949219 8.078125 8.761719 9.335938 C 9.664062 10.679688 9.9375 11.21875 9.03125 12.117188 C 8.671875 12.386719 8.671875 13.015625 9.03125 13.375 Z M 9.03125 13.375 " fill-opacity="1" fill-rule="nonzero"/><g clip-path="url(#363a761fe1)"><path fill="#000000" d="M 14.367188 11.578125 C 14.730469 11.9375 15.269531 11.9375 15.632812 11.578125 C 17.710938 9.605469 16.445312 7.71875 15.632812 6.460938 C 14.730469 5.023438 14.457031 4.484375 15.632812 3.585938 C 15.996094 3.226562 16.085938 2.691406 15.722656 2.332031 C 15.453125 1.972656 14.820312 1.882812 14.457031 2.152344 C 11.925781 4.214844 13.28125 6.28125 14.097656 7.449219 C 15 8.796875 15.269531 9.335938 14.367188 10.230469 C 14.097656 10.589844 14.097656 11.21875 14.367188 11.578125 Z M 14.367188 11.578125 " fill-opacity="1" fill-rule="nonzero"/></g><path fill="#000000" d="M 19.792969 13.375 C 20.152344 13.734375 20.695312 13.734375 21.058594 13.375 C 23.136719 11.398438 21.871094 9.515625 21.058594 8.257812 C 20.152344 6.820312 19.882812 6.28125 21.058594 5.382812 C 21.417969 5.023438 21.511719 4.484375 21.148438 4.125 C 20.875 3.765625 20.242188 3.675781 19.882812 3.945312 C 17.351562 6.011719 18.707031 8.078125 19.519531 9.246094 C 20.425781 10.589844 20.695312 11.128906 19.792969 12.027344 C 19.519531 12.386719 19.429688 13.015625 19.792969 13.375 Z M 19.792969 13.375 " fill-opacity="1" fill-rule="nonzero"/></svg>